<svg width="862" height="634" viewBox="0 0 862 634" fill="none" xmlns="http://www.w3.org/2000/svg">
<path fill-rule="evenodd" clip-rule="evenodd" d="M419.058 327.056C407.772 328.333 399.112 328.18 393.077 326.597C387.042 325.015 382.283 321.648 378.799 316.497C375.002 308.621 372.896 304.106 372.48 302.955C370.444 297.312 370.218 291.767 370.607 288.035C371.116 283.162 373.847 276.811 378.799 268.984C379.505 263.542 380.675 258.722 382.311 254.523C383.946 250.325 387.223 244.281 392.141 236.39L392.843 210.453C394.918 204.516 396.869 200.307 398.695 197.828C400.52 195.349 402.627 194.048 405.014 193.926C407.028 193.738 408.901 194.197 410.631 195.303C412.362 196.409 415.639 199.24 420.462 203.796C424.445 196.98 428.97 191.777 434.038 188.188C439.105 184.599 445.814 181.845 454.166 179.925L455.337 177.629L455.478 164.128L451.592 131.263H446.442L454.4 119.786C455.111 117.257 455.813 115.422 456.507 114.278C457.201 113.134 458.498 111.833 460.397 110.376C460.432 109.953 461.993 109.723 465.082 109.687C468.17 109.65 473.037 109.803 479.68 110.146C482.514 110.785 484.467 111.626 485.531 112.671C486.594 113.715 487.531 115.934 488.337 119.328L499.749 131.279L492.553 131.722L491.851 153.528C490.848 157.268 489.911 159.792 489.04 161.103C488.168 162.413 486.768 163.408 484.828 164.087L473.36 164.775L471.954 178.088L472.891 179.925C478.747 181.567 482.729 182.867 484.828 183.826C489.874 186.13 494.437 189.467 497.936 195.303C500.386 199.389 502.921 205.034 506.359 210.912C509.39 216.087 514.928 225.192 522.981 238.226L530.936 245.112L534.918 252.916L544.512 260.032L548.958 245.801C539.912 232.335 535.386 223.766 535.386 220.093C535.386 218.558 536.333 217.111 537.256 216.191C538.549 214.909 540.319 214.122 543.341 214.354C545.356 214.51 547.309 215.734 549.192 218.027L576.111 288.953C573.431 297.563 571.094 303.99 569.089 308.234C567.088 312.478 564.123 316.686 560.197 320.859C554.538 323.972 549.778 325.808 545.918 326.368C542.057 326.927 535.738 326.392 526.958 324.761C523.885 323.381 521.857 322.08 520.873 320.859C517.233 316.331 515.706 310.587 513.85 307.546C511.246 303.273 509.686 299.295 509.17 295.61L496.999 256.819L444.336 255.212L439.421 294.462C436.734 305.13 433.847 312.934 430.761 317.875C427.674 322.816 423.773 325.876 419.058 327.056Z" fill="white"/>
<path fill-rule="evenodd" clip-rule="evenodd" d="M422.685 335.512C421.731 335.343 421.028 335.26 420.576 335.262C418.841 335.269 417.424 335.181 416.594 333.884C415.44 332.079 415.752 329.935 417.531 327.452L422.45 325.844H424.793L441.892 326.533L447.28 325.844L466.253 325.155C468.283 326.074 468.984 327.835 468.361 330.438C467.737 333.041 466.019 334.649 463.208 335.262L457.586 335.512L419.639 506.143H395.279C399.449 479.341 402.806 459.179 405.351 445.665C407.896 432.151 413.673 395.433 422.685 335.512ZM482.181 335.512C482.144 334.97 480.659 334.886 477.731 335.262C475.234 334.037 474.217 332.122 474.686 329.519C475.154 326.916 476.325 325.537 478.199 325.384L481.713 325.844H492.488L503.263 326.533L515.209 325.384C518.957 325.69 520.831 327.375 520.831 330.438C520.831 332.179 520.231 333.082 519.425 333.884C519.018 334.289 518.235 334.748 517.083 335.262L513.335 335.512L522.939 506.373H497.641C494.235 475.647 492.047 454.109 491.082 441.755C489.935 427.042 483.437 353.908 482.181 335.512Z" fill="white"/>
<path fill-rule="evenodd" clip-rule="evenodd" d="M422.685 335.282H457.586L419.639 505.914H395.279C399.449 479.111 402.806 458.949 405.351 445.435C407.896 431.921 413.673 395.203 422.685 335.282ZM482.181 335.282H513.335L522.939 506.143H497.641C494.235 475.417 492.047 453.879 491.082 441.525C489.935 426.812 483.437 353.678 482.181 335.282Z" stroke="#263E4B" stroke-width="1.5"/>
<path fill-rule="evenodd" clip-rule="evenodd" d="M444.469 183.045L418.059 183.167C404.883 183.228 394.05 193.371 393.379 206.275L392.936 214.781C393.349 210.407 393.895 207.341 394.576 205.582C395.656 202.79 396.904 201.184 398.324 199.373C400.47 196.634 402.902 194.323 404.882 193.854C409.411 192.781 414.486 196.23 420.108 204.202C421.049 202.416 421.83 201.037 422.45 200.063C423.688 198.119 425.006 196.02 427.369 193.854C432.054 189.561 437.754 185.959 444.469 183.045Z" fill="#147587"/>
<path fill-rule="evenodd" clip-rule="evenodd" d="M422.919 325.394C425.328 326.255 429.857 326.639 436.505 326.543C440.125 326.491 446.641 325.432 452.199 325.163C455.298 325.014 459.983 325.014 466.253 325.163L471.64 311.135H476.794L478.433 325.163C483.915 325.5 487.817 325.729 490.145 325.853C495.149 326.119 499.309 326.313 502.56 326.313C508.079 326.313 512.136 325.93 514.74 325.163L502.794 259.623L447.28 261.693C446.554 271.674 443.899 282.635 439.315 294.578C438.339 297.124 438.182 300.341 437.207 303.547C435.721 308.432 434.085 313.157 432.288 316.425C430.584 319.525 427.461 322.514 422.919 325.394Z" fill="#147587"/>
<path d="M514.37 325.316L509.006 294.636C508.973 294.449 509.105 294.27 509.292 294.238C509.484 294.206 509.667 294.332 509.7 294.52L515.036 325.049H515.795C518.769 325.049 521.182 327.416 521.182 330.337C521.182 333.259 518.769 335.627 515.795 335.627H478.832C476.194 335.627 474.058 333.528 474.058 330.938C474.058 330.721 474.072 330.505 474.105 330.29L474.386 328.315C474.639 326.538 476.039 325.148 477.815 324.862L476.475 311.481H471.884L466.735 324.888C468.171 325.214 469.19 326.53 469.073 328.017C469.064 328.146 469.045 328.273 469.017 328.399L468.586 330.408C467.94 333.449 465.209 335.627 462.045 335.627H419.193C417.219 335.627 415.618 334.055 415.618 332.117C415.618 331.75 415.676 331.385 415.792 331.036C416.104 330.088 416.494 328.863 416.961 327.362C417.018 327.18 417.214 327.077 417.4 327.133C417.585 327.189 417.69 327.382 417.633 327.564C417.165 329.068 416.774 330.297 416.46 331.248C416.367 331.529 416.321 331.822 416.321 332.117C416.321 333.674 417.607 334.937 419.193 334.937H462.045C464.876 334.937 467.32 332.988 467.9 330.267L468.329 328.258C468.349 328.161 468.363 328.063 468.371 327.964C468.47 326.708 467.514 325.61 466.236 325.508C463.329 325.452 461.273 325.423 460.068 325.422C456.807 325.418 447.611 325.942 445.687 326.195C441.319 326.769 439.006 326.852 435.228 326.727C435.106 326.723 435.106 326.723 434.982 326.719C433.633 326.674 432.987 326.658 432.126 326.658C429.001 326.658 426.667 326.581 425.118 326.426C423.3 326.245 422.477 325.991 422.571 325.345L423.267 325.442C423.274 325.392 423.26 325.355 423.25 325.338C423.3 325.375 423.401 325.421 423.55 325.467C423.895 325.573 424.444 325.666 425.189 325.74C426.71 325.892 429.023 325.968 432.126 325.968C432.998 325.968 433.649 325.984 435.006 326.029C435.129 326.033 435.129 326.033 435.252 326.037C438.993 326.161 441.268 326.08 445.593 325.511C447.551 325.254 456.778 324.729 460.069 324.733C461.246 324.733 463.227 324.761 466.012 324.814L471.312 311.014C471.364 310.88 471.495 310.79 471.64 310.79H476.794H479.839C480.031 310.79 480.19 310.945 480.19 311.135C480.19 311.326 480.031 311.481 479.839 311.481H477.183L478.527 324.9C480.078 325.151 483.179 325.278 487.803 325.278C489.541 325.278 498.039 325.744 500.485 325.97C503.272 326.227 507.905 326.01 514.37 325.316ZM514.754 325.738L514.778 325.966C508.093 326.692 503.31 326.923 500.419 326.657C497.997 326.433 489.518 325.968 487.803 325.968C482.856 325.968 479.642 325.824 478.129 325.531L478.134 325.515C476.564 325.675 475.299 326.867 475.079 328.411L474.798 330.385C474.775 330.569 474.76 330.753 474.76 330.938C474.76 333.146 476.583 334.937 478.832 334.937H515.795C518.381 334.937 520.479 332.878 520.479 330.337C520.479 327.797 518.381 325.738 515.795 325.738H514.754Z" fill="#263E4B"/>
<path d="M473.847 164.763L472.484 178.897C483.587 182.602 490.689 185.819 493.809 188.577C497.861 192.153 508.243 212.821 513.56 226.385C515.167 230.481 517.659 233.076 523.702 237.878L524.208 238.282C530.28 243.105 532.758 245.709 534.281 249.848C536.623 256.238 541.317 257.773 548.555 254.481C548.733 254.401 548.944 254.477 549.024 254.649C549.103 254.822 549.028 255.027 548.85 255.107C541.256 258.561 536.112 256.877 533.615 250.082C532.158 246.101 529.741 243.563 523.768 238.818L523.257 238.414C517.12 233.538 514.572 230.879 512.904 226.632C507.634 213.188 497.271 192.561 493.34 189.09C490.286 186.394 483.16 183.175 471.996 179.463C471.842 179.411 471.743 179.263 471.758 179.104L473.144 164.763H469.064C468.872 164.763 468.712 164.609 468.712 164.418C468.712 164.228 468.872 164.073 469.064 164.073H473.524C473.528 164.073 473.528 164.073 473.533 164.073H481.333C486.168 164.073 488.974 162.144 490.44 158.243C491.616 155.109 491.902 151.486 491.902 143.742V138.468C491.902 138.395 491.902 138.336 491.902 138.202C491.907 135.638 491.785 134.16 491.223 131.908C491.213 131.895 491.195 131.878 491.176 131.859C491.12 131.805 491.045 131.735 490.946 131.648H457.449C457.255 131.648 457.097 131.494 457.097 131.304C457.097 131.113 457.255 130.959 457.449 130.959H491.082C491.167 130.959 491.251 130.989 491.316 131.045C491.729 131.406 491.855 131.527 491.893 131.681C492.483 134.034 492.609 135.564 492.605 138.203C492.605 138.337 492.605 138.396 492.605 138.468V143.742C492.605 151.574 492.314 155.242 491.096 158.482C489.532 162.653 486.463 164.763 481.333 164.763H473.847ZM576.476 288.502L577.151 288.696C571.267 308.32 565.013 319.76 558.323 323.034C547.787 328.189 534.908 328.586 524.424 323.537C523.037 322.87 521.95 321.938 520.845 320.506C520.058 319.485 519.285 318.257 518.043 316.124C517.72 315.566 516.483 313.418 516.3 313.103C515.523 311.76 514.853 310.617 514.141 309.425C513.162 307.793 511.77 304.19 509.957 298.592L510.622 298.383C512.421 303.931 513.803 307.503 514.745 309.075C515.462 310.27 516.136 311.417 516.914 312.763C517.097 313.079 518.329 315.226 518.652 315.782C519.88 317.89 520.643 319.099 521.407 320.09C522.447 321.44 523.454 322.301 524.733 322.918C535.016 327.868 547.665 327.479 558.009 322.417C564.465 319.258 570.644 307.947 576.476 288.502Z" fill="#263E4B"/>
<path fill-rule="evenodd" clip-rule="evenodd" d="M480.073 182.126L484.289 183.735C487.255 192.628 489.522 200.216 491.082 206.502C492.642 212.787 493.659 222.139 494.127 234.557L488.271 232.948C488.74 222.983 487.883 214.167 485.695 206.502C484.744 203.163 482.87 195.038 480.073 182.126ZM444.234 183.045L448.217 181.436C449.153 188.232 449.622 193.598 449.622 197.533C449.622 201.468 449.622 205.454 449.622 209.492L443.532 218C444.469 215.241 444.937 209.032 444.937 199.373C444.937 189.714 444.703 184.272 444.234 183.045Z" fill="#147587"/>
<path d="M479.965 182.197L479.83 181.573L484.805 183.473L484.856 183.628C487.826 192.528 490.094 200.125 491.659 206.42C493.228 212.733 494.245 222.105 494.713 234.545L494.732 235.017L488.14 233.206L488.154 232.932C488.623 223.002 487.766 214.223 485.592 206.595C484.636 203.247 482.762 195.118 479.965 182.197ZM486.266 206.409C488.445 214.042 489.312 222.802 488.871 232.689L493.992 234.098C493.518 221.936 492.511 212.763 490.975 206.584C489.424 200.344 487.18 192.815 484.243 183.998L480.785 182.679C483.507 195.221 485.334 203.134 486.266 206.409ZM444.14 183.167L444.02 182.854L448.738 180.947L448.799 181.39C449.738 188.2 450.208 193.58 450.208 197.533V209.6L442.674 220.126L443.433 217.891C444.354 215.18 444.82 208.993 444.82 199.373C444.82 189.791 444.585 184.333 444.14 183.167ZM445.523 199.373C445.523 207.347 445.205 212.978 444.562 216.289L449.505 209.383V197.533C449.505 193.702 449.058 188.498 448.163 181.925L444.895 183.246C445.32 184.973 445.523 190.304 445.523 199.373Z" fill="#263E4B"/>
<path d="M473.411 183.143L474.086 182.948L505.952 288.534C507.769 297.867 514.333 302.512 525.75 302.512C537.171 302.512 546.559 295.028 553.929 279.994L554.561 280.293C547.089 295.544 537.48 303.202 525.75 303.202C514.014 303.202 507.146 298.342 505.268 288.697L473.411 183.143ZM490.736 268.539L491.429 268.645C487.812 291.641 481.019 303.202 470.938 303.202C462.783 303.202 457.357 278.294 455.127 230.664C454.706 221.683 454.472 206.348 454.424 184.656L455.127 184.654C455.175 206.337 455.409 221.664 455.829 230.632C458.03 277.642 463.448 302.512 470.938 302.512C480.532 302.512 487.166 291.23 490.736 268.539Z" fill="#263E4B"/>
<path fill-rule="evenodd" clip-rule="evenodd" d="M525.74 257.228L550.284 254.698L551.736 268.243L527.193 270.773L525.74 257.228ZM502.977 232.945L500.667 211.423C501.595 209.096 504.031 207.729 507.985 207.322C511.934 206.915 514.609 207.755 516.01 209.843L518.315 231.364L502.977 232.945ZM567.402 226.304L552.064 227.886L549.755 206.364C550.682 204.037 553.118 202.67 557.072 202.263C561.022 201.855 563.697 202.695 565.097 204.783L567.402 226.304Z" fill="#2F2E41"/>
<path fill-rule="evenodd" clip-rule="evenodd" d="M501.047 256.843L497.482 223.582C498.976 219.979 502.883 217.852 509.208 217.2C515.527 216.548 519.8 217.832 522.025 221.052L525.59 254.313L501.047 256.843ZM574.677 249.253L550.134 251.783L546.569 218.522C548.063 214.92 551.97 212.792 558.295 212.141C564.615 211.489 568.887 212.773 571.112 215.993L574.677 249.253Z" fill="white"/>
<path fill-rule="evenodd" clip-rule="evenodd" d="M500.892 256.936L497.327 223.675C498.822 220.072 502.729 217.944 509.053 217.293C515.373 216.641 519.645 217.925 521.871 221.145L525.436 254.406L500.892 256.936ZM574.523 249.347L549.979 251.876L546.414 218.615C547.909 215.012 551.816 212.885 558.14 212.233C564.46 211.582 568.733 212.866 570.958 216.086L574.523 249.347Z" fill="white" stroke="#263E4B" stroke-width="1.5" stroke-linecap="round" stroke-linejoin="round"/>
<path fill-rule="evenodd" clip-rule="evenodd" d="M500.293 293.707L496.165 255.229C498.302 251.019 503.712 248.466 512.407 247.57C521.098 246.674 526.935 248.068 529.914 251.75L534.037 290.229L500.293 293.707ZM583.124 285.17L549.38 288.648L545.252 250.17C547.389 245.959 552.8 243.406 561.495 242.511C570.185 241.615 576.022 243.008 579.002 246.691L583.124 285.17Z" fill="white"/>
<path d="M500.218 294.062C500.026 294.082 499.852 293.944 499.834 293.755L495.711 255.276C495.702 255.211 495.716 255.146 495.744 255.087C497.941 250.748 503.46 248.145 512.262 247.238C521.06 246.332 527.01 247.752 530.083 251.547C530.125 251.599 530.149 251.661 530.158 251.726L534.281 290.204C534.299 290.394 534.159 290.564 533.967 290.583L500.218 294.062ZM533.545 289.933L529.469 251.899C526.56 248.386 520.859 247.046 512.333 247.924C503.811 248.803 498.517 251.276 496.418 255.305L500.494 293.34L533.545 289.933ZM583.368 285.145C583.387 285.334 583.246 285.504 583.054 285.524L549.305 289.002C549.113 289.022 548.939 288.885 548.921 288.695L544.798 250.217C544.789 250.152 544.803 250.086 544.831 250.027C547.033 245.689 552.551 243.086 561.349 242.179C570.147 241.272 576.097 242.692 579.17 246.488C579.212 246.539 579.236 246.601 579.245 246.666L583.368 285.145ZM582.632 284.874L578.557 246.839C575.647 243.326 569.946 241.986 561.424 242.865C552.898 243.744 547.609 246.217 545.505 250.246L549.581 288.28L582.632 284.874Z" fill="#263E4B"/>
<path fill-rule="evenodd" clip-rule="evenodd" d="M517.659 297.623C508.341 298.584 500.517 296.836 500.18 293.719C499.848 290.602 507.132 287.296 516.45 286.336C525.768 285.375 533.597 287.123 533.929 290.24C534.267 293.357 526.982 296.663 517.659 297.623ZM566.751 292.564C557.428 293.525 549.605 291.776 549.272 288.659C548.935 285.542 556.22 282.237 565.538 281.276C574.86 280.316 582.684 282.064 583.016 285.181C583.354 288.298 576.069 291.603 566.751 292.564Z" fill="#2F2E41"/>
<path d="M491.888 263.347C494.835 263.042 496.971 260.453 496.662 257.562C496.353 254.671 493.71 252.574 490.764 252.878C487.817 253.181 485.681 255.771 485.99 258.662C486.299 261.553 488.941 263.65 491.888 263.347ZM491.813 262.66C489.251 262.924 486.96 261.102 486.688 258.59C486.421 256.078 488.276 253.827 490.839 253.564C493.397 253.3 495.692 255.122 495.964 257.634C496.231 260.146 494.376 262.397 491.813 262.66Z" fill="#263E4B"/>
<path d="M379.415 269.038L384.149 267.348C384.332 267.283 384.533 267.376 384.6 267.554C384.666 267.734 384.572 267.932 384.389 267.997L380.181 269.499L384.448 271.975C384.615 272.071 384.67 272.283 384.572 272.447C384.473 272.611 384.258 272.665 384.09 272.569L379.326 269.804L379.236 269.836C379.195 269.851 379.152 269.858 379.111 269.857C370.508 281.104 368.518 292.2 373.117 303.186C377.6 313.896 379.615 317.718 383.011 321.017C386.927 324.821 392.319 326.797 401.641 327.81C419.223 329.72 429.492 324 434.065 311.251C436.923 303.285 438.557 297.707 438.967 294.535C438.991 294.346 439.167 294.212 439.36 294.236C439.552 294.26 439.689 294.433 439.664 294.622C439.246 297.857 437.601 303.471 434.728 311.48C430.042 324.545 419.459 330.44 401.564 328.496C392.098 327.467 386.564 325.438 382.517 321.507C379.027 318.118 376.988 314.249 372.467 303.448C367.743 292.163 369.826 280.752 378.692 269.256C379.646 257.584 383.962 246.659 391.635 236.488C399.285 226.348 407.168 218.724 415.288 213.62C420.776 199.345 428.744 189.785 439.197 184.961C444.404 182.558 448.313 180.96 450.929 180.166C452.681 179.635 453.928 179.439 454.625 179.655L455.83 157.961C455.84 157.77 456.006 157.625 456.2 157.634C456.394 157.645 456.542 157.808 456.532 157.998L455.279 180.567C455.254 181.013 454.576 180.996 454.576 180.548C454.576 180.126 453.492 180.111 451.136 180.826C448.558 181.607 444.676 183.194 439.495 185.585C429.198 190.337 421.334 199.792 415.904 213.97C415.878 214.04 415.828 214.1 415.765 214.139C407.689 219.195 399.833 226.78 392.2 236.898C384.663 246.888 380.404 257.6 379.415 269.038Z" fill="#263E4B"/>
<path fill-rule="evenodd" clip-rule="evenodd" d="M455.01 177.757L451.718 185.929C451.529 186.401 451.764 186.934 452.246 187.121C452.435 187.194 452.644 187.205 452.84 187.152L466.896 183.328L476.199 186.577C476.686 186.747 477.22 186.498 477.393 186.019C477.501 185.734 477.454 185.416 477.272 185.17L472.109 178.216C471.153 179.034 469.101 179.443 465.956 179.443C462.812 179.443 459.163 178.881 455.01 177.757Z" fill="white"/>
<path d="M466.677 183.579L453.169 187.254C452.899 187.327 452.612 187.313 452.351 187.211C451.689 186.955 451.365 186.22 451.627 185.57L454.917 177.4C454.983 177.236 455.164 177.147 455.337 177.194C459.462 178.311 463.081 178.868 466.191 178.868C469.256 178.868 471.238 178.472 472.114 177.726C472.268 177.594 472.507 177.62 472.629 177.783L477.787 184.735C478.035 185.072 478.101 185.51 477.96 185.904C477.721 186.562 476.986 186.906 476.311 186.671L467.382 183.551C467.397 183.682 467.416 183.836 467.436 184.012C467.524 184.76 467.656 185.92 467.832 187.492C468.184 190.636 468.712 195.427 469.415 201.866C469.434 202.055 469.293 202.225 469.101 202.246C468.909 202.266 468.736 202.129 468.712 201.94C468.012 195.501 467.485 190.71 467.133 187.568C466.958 185.997 466.826 184.838 466.738 184.091C466.715 183.89 466.694 183.719 466.677 183.579ZM466.669 179.555C466.746 179.85 466.819 180.18 466.89 180.539C467.005 181.125 467.095 181.689 467.201 182.433L467.246 182.748C467.247 182.756 467.248 182.765 467.249 182.773L476.55 186.021C476.855 186.128 477.187 185.971 477.295 185.672C477.361 185.494 477.332 185.295 477.22 185.141L472.268 178.473C471.21 179.167 469.35 179.518 466.669 179.555ZM466.558 182.895C466.555 182.879 466.553 182.862 466.55 182.844L466.505 182.529C466.401 181.795 466.312 181.241 466.2 180.669C466.118 180.251 466.032 179.878 465.942 179.557C462.899 179.529 459.403 178.99 455.455 177.941L452.28 185.824C452.161 186.119 452.309 186.453 452.61 186.57C452.728 186.616 452.859 186.623 452.981 186.589L466.558 182.895Z" fill="#263E4B"/>
<path fill-rule="evenodd" clip-rule="evenodd" d="M418.702 256.702C438.14 226.285 449.306 209.497 452.199 206.34C454.456 203.876 458.323 203.673 460.836 205.887C462.716 207.544 463.363 210.165 462.464 212.482L455.478 230.487" fill="white"/>
<path d="M418.918 257.048C438.335 226.665 449.507 209.866 452.378 206.733C454.507 204.409 458.152 204.22 460.518 206.31C462.29 207.874 462.898 210.346 462.05 212.532L455.068 230.526L455.725 230.771L462.707 212.777C463.658 210.325 462.976 207.552 460.989 205.797C458.333 203.452 454.245 203.664 451.856 206.271C448.942 209.452 437.784 226.228 418.323 256.681L418.918 257.048Z" fill="#263E4B"/>
<path fill-rule="evenodd" clip-rule="evenodd" d="M462.122 144.885C461.575 144.727 460.996 144.642 460.397 144.642C457.033 144.642 454.307 147.319 454.307 150.62C454.307 153.426 456.275 155.781 458.93 156.425L458.655 161.988C458.581 163.472 457.322 164.632 455.808 164.611L448.579 164.512C448.115 164.505 447.655 164.438 447.21 164.31C444.478 163.53 442.908 160.725 443.704 158.045L451.648 131.304H452.589L452.593 131.299L453.695 131.304H457.82L457.821 131.323L467.621 131.369C466.489 136.473 465.473 139.883 464.572 141.6C463.929 142.826 463.112 143.921 462.122 144.885ZM495.416 131.304C496.334 135.136 494.91 137.053 491.134 137.053C487.353 137.053 481.689 135.136 474.138 131.304H495.416Z" fill="#2F2E41"/>
<path fill-rule="evenodd" clip-rule="evenodd" d="M408.718 264.73L440.524 236.938C445.154 232.892 451.16 230.691 457.361 230.77L493.579 231.227C498.526 231.29 502.569 235.116 502.808 239.962C503.038 244.549 499.431 248.448 494.75 248.67C494.647 248.675 494.54 248.679 494.432 248.68L463.77 249.009C461.895 249.029 460.39 250.537 460.411 252.376C460.411 252.377 460.411 252.378 460.411 252.38C460.434 254.242 461.952 255.755 463.851 255.806L495.5 256.656C499.815 256.772 503.253 260.222 503.277 264.453C503.3 268.622 499.871 272.02 495.622 272.042C495.608 272.042 495.594 272.042 495.58 272.042H465.41C463.555 272.042 462.051 273.517 462.051 275.337C462.051 275.35 462.051 275.363 462.051 275.376C462.075 277.377 463.376 279.148 465.304 279.804L484.622 286.381C487.967 287.519 489.733 291.099 488.571 294.378C488.52 294.523 488.464 294.667 488.403 294.808C486.857 298.32 482.828 300.087 479.127 298.876L447.721 288.599L430.731 299.719C422.017 305.423 410.239 303.119 404.424 294.573C403.877 293.77 403.395 292.926 402.982 292.048C401.502 288.907 401.04 284.407 401.597 278.548C402.103 273.224 404.647 268.287 408.718 264.73Z" fill="white"/>
<path d="M407.452 297.392L413.377 293.653C411.344 291.747 409.703 289.406 408.316 286.684C406.307 282.738 406.967 275.193 410.26 264.001L409.138 264.981C405.127 268.486 402.621 273.354 402.124 278.602C401.576 284.395 402.032 288.831 403.48 291.904C403.884 292.761 404.354 293.585 404.887 294.37C405.646 295.487 406.508 296.496 407.452 297.392ZM407.984 297.877C414.158 303.289 423.497 304.156 430.705 299.439L432.344 298.366C425.831 299.521 420.533 298.578 416.287 295.903C415.441 295.371 414.652 294.78 413.911 294.136L407.984 297.877ZM410.634 262.75C410.635 262.748 410.635 262.747 410.636 262.744C410.676 262.613 410.788 262.522 410.918 262.502L440.472 236.678C445.166 232.576 451.253 230.346 457.537 230.425L493.771 230.882C498.897 230.947 503.09 234.917 503.338 239.945C503.577 244.722 499.824 248.783 494.957 249.015C494.849 249.021 494.737 249.024 494.624 249.025L463.95 249.354C462.271 249.372 460.924 250.723 460.942 252.372V252.376C460.963 254.053 462.329 255.415 464.037 255.461L495.697 256.312C500.194 256.432 503.783 260.034 503.806 264.451C503.83 268.811 500.25 272.364 495.809 272.387H495.767H465.586C463.927 272.387 462.582 273.707 462.582 275.337C462.582 275.354 462.582 275.354 462.582 275.372C462.604 277.228 463.81 278.87 465.595 279.477L484.922 286.057C488.445 287.256 490.309 291.03 489.087 294.487C489.03 294.641 488.97 294.794 488.904 294.945C487.283 298.622 483.071 300.472 479.202 299.205L447.953 288.98L431.095 300.013C422.217 305.824 410.221 303.469 404.302 294.753C403.749 293.938 403.261 293.082 402.842 292.194C401.334 288.992 400.866 284.442 401.425 278.538C401.938 273.116 404.527 268.086 408.671 264.466L410.634 262.75ZM411.251 263.135C407.734 274.752 406.979 282.516 408.945 286.376C410.887 290.189 413.333 293.222 416.667 295.323C421.007 298.057 426.501 298.916 433.386 297.46C433.482 297.44 433.577 297.46 433.653 297.51L447.849 288.219L479.422 298.551C482.945 299.705 486.786 298.02 488.257 294.671C488.318 294.536 488.375 294.399 488.421 294.261C489.518 291.164 487.845 287.783 484.692 286.709L465.365 280.129C463.3 279.426 461.905 277.527 461.879 275.38C461.879 275.359 461.879 275.359 461.879 275.337C461.879 273.327 463.539 271.697 465.586 271.697H495.767L495.805 271.697C499.857 271.676 503.127 268.433 503.104 264.455C503.085 260.41 499.796 257.112 495.678 257.001L464.017 256.15C461.932 256.094 460.264 254.432 460.239 252.384V252.38C460.217 250.35 461.875 248.686 463.943 248.664L494.619 248.335C494.718 248.334 494.821 248.331 494.924 248.326C499.403 248.112 502.855 244.375 502.635 239.979C502.406 235.315 498.517 231.632 493.762 231.572L457.528 231.115C451.42 231.037 445.502 233.206 440.939 237.193L411.251 263.135Z" fill="#263E4B"/>
<path fill-rule="evenodd" clip-rule="evenodd" d="M567.248 239.256L567.252 240.191C567.276 244.961 571.22 248.815 576.088 248.815H582.75C577.245 249.23 573.652 250.994 571.975 254.104C569.337 259.004 571.248 265.073 576.247 267.661C577.718 268.424 579.358 268.822 581.021 268.822H583.921L583.129 269.203C577.559 271.886 575.254 278.491 577.99 283.957C578.154 284.287 578.336 284.608 578.533 284.92C581.199 288.557 586.366 289.389 590.072 286.777C590.32 286.603 590.559 286.415 590.784 286.215L595.956 281.646C598.814 279.123 600.153 275.344 599.516 271.627C599.474 271.356 599.427 271.111 599.381 270.892C599.113 269.551 598.177 267.558 596.57 264.913C597.666 262.766 597.975 260.16 597.507 257.094C597.038 254.028 595.712 251.345 593.525 249.045C594.593 246.368 594.747 243.379 593.993 240.077C593.698 238.769 593.286 237.654 592.756 236.733C591.791 235.044 590.048 233.919 588.081 233.717L575.006 232.371C571.145 231.973 567.688 234.72 567.285 238.505C567.257 238.754 567.248 239.006 567.248 239.256Z" fill="white"/>
<path d="M584.019 268.247L596.476 264.398C597.478 262.345 597.764 259.853 597.315 256.915C596.855 253.927 595.567 251.314 593.44 249.069V249.16L582.642 248.952C577.409 249.398 574.022 251.099 572.438 254.036C569.894 258.764 571.731 264.624 576.552 267.124C577.971 267.862 579.555 268.247 581.161 268.247H584.019ZM584.207 268.913L583.429 269.286C578.041 271.881 575.811 278.274 578.454 283.567C578.618 283.889 578.791 284.203 578.974 284.488C581.527 287.975 586.474 288.77 590.025 286.264C590.259 286.098 590.484 285.92 590.7 285.73L595.867 281.165C598.64 278.717 599.943 275.047 599.32 271.437C599.277 271.176 599.231 270.94 599.188 270.729C598.94 269.475 598.064 267.591 596.565 265.094L584.207 268.913ZM582.904 248.268L593.436 248.47C594.396 245.916 594.522 243.069 593.806 239.922C593.515 238.647 593.112 237.565 592.606 236.675C591.693 235.082 590.053 234.021 588.198 233.83L575.123 232.484C571.455 232.106 568.17 234.718 567.786 238.318C567.763 238.556 567.749 238.794 567.749 239.033L567.754 239.96C567.777 244.539 571.562 248.24 576.228 248.24H582.904V248.268ZM571.82 253.713C573.071 251.391 575.334 249.799 578.594 248.93H576.228C571.178 248.93 567.074 244.922 567.051 239.963L567.046 239.036C567.046 238.772 567.06 238.508 567.088 238.247C567.515 234.268 571.145 231.381 575.198 231.798L588.273 233.144C590.353 233.358 592.194 234.549 593.22 236.338C593.763 237.29 594.185 238.434 594.49 239.771C595.239 243.055 595.103 246.047 594.087 248.738C596.232 251.054 597.539 253.747 598.008 256.813C598.476 259.865 598.181 262.486 597.122 264.667C598.687 267.264 599.605 269.234 599.882 270.595C599.924 270.813 599.971 271.056 600.013 271.323C600.674 275.165 599.287 279.071 596.335 281.678L591.173 286.242C590.939 286.449 590.69 286.644 590.437 286.824C586.568 289.553 581.18 288.687 578.388 284.872C578.182 284.547 577.994 284.213 577.826 283.87C575.099 278.411 577.24 271.853 582.595 268.937H581.161C579.437 268.937 577.741 268.524 576.219 267.734C571.061 265.056 569.089 258.779 571.82 253.713ZM576.219 234.32C576.411 234.318 576.57 234.47 576.575 234.66C576.575 234.851 576.42 235.007 576.228 235.01C573.638 235.046 572.49 236.566 572.71 239.748C572.935 242.944 574.087 244.379 576.2 244.234C576.397 244.22 576.561 244.364 576.575 244.554C576.589 244.744 576.444 244.909 576.252 244.922C573.68 245.098 572.256 243.328 572.012 239.795C571.764 236.247 573.188 234.362 576.219 234.32ZM579.578 253.991C579.77 253.975 579.939 254.116 579.957 254.306C579.971 254.495 579.831 254.663 579.634 254.678C577.053 254.891 576.017 256.486 576.463 259.645C576.912 262.818 578.168 264.17 580.267 263.881C580.459 263.855 580.637 263.986 580.66 264.175C580.688 264.364 580.552 264.538 580.36 264.565C577.812 264.916 576.266 263.248 575.769 259.74C575.268 256.218 576.556 254.24 579.578 253.991ZM584.502 274.107C584.694 274.068 584.876 274.188 584.919 274.374C584.956 274.561 584.834 274.743 584.647 274.782C582.112 275.302 581.278 277.008 582.117 280.091C582.956 283.186 584.366 284.379 586.413 283.841C586.6 283.792 586.793 283.901 586.844 284.085C586.896 284.269 586.783 284.458 586.596 284.508C584.108 285.161 582.365 283.69 581.438 280.268C580.501 276.832 581.536 274.715 584.502 274.107Z" fill="#263E4B"/>
<path fill-rule="evenodd" clip-rule="evenodd" d="M280.136 335.831L291.511 452.321H297.367L291.789 334.709C291.643 331.623 288.973 329.237 285.826 329.38C285.73 329.385 285.634 329.392 285.538 329.401C282.237 329.717 279.82 332.594 280.136 335.831Z" fill="white"/>
<path d="M279.786 335.647L291.191 452.448H297.735L292.14 334.476C291.985 331.2 289.151 328.667 285.81 328.82C285.708 328.824 285.605 328.831 285.503 328.841C282.01 329.175 279.452 332.22 279.786 335.647ZM291.83 451.759L280.486 335.581C280.188 332.533 282.464 329.824 285.572 329.527C285.662 329.518 285.752 329.512 285.843 329.508C288.796 329.373 291.301 331.612 291.438 334.508L296.998 451.759H291.83Z" fill="#263E4B"/>
<path d="M288.64 455.683C288.567 455.86 288.361 455.944 288.182 455.872C288.002 455.8 287.916 455.599 287.99 455.423C292.626 444.308 295.324 436.541 296.083 432.142C296.116 431.954 296.297 431.828 296.488 431.86C296.68 431.891 296.809 432.069 296.776 432.257C296.006 436.721 293.295 444.523 288.64 455.683ZM295.826 416.792C295.888 416.973 295.788 417.168 295.605 417.229C295.42 417.289 295.221 417.192 295.16 417.011C293.096 410.978 288.928 405.831 282.644 401.565C282.484 401.457 282.445 401.242 282.555 401.085C282.665 400.929 282.884 400.89 283.044 400.998C289.448 405.345 293.712 410.611 295.826 416.792ZM290.785 441.224C290.705 441.398 290.497 441.475 290.32 441.396C290.143 441.318 290.065 441.113 290.145 440.94C290.772 439.584 291.192 438.479 291.404 437.63C294.32 425.969 292.512 417.448 287.349 411.392C287.224 411.245 287.244 411.028 287.393 410.906C287.542 410.784 287.764 410.803 287.888 410.95C293.198 417.179 295.054 425.926 292.086 437.794C291.862 438.691 291.428 439.833 290.785 441.224ZM282.503 330.136C282.478 329.947 282.614 329.775 282.807 329.751C282.999 329.726 283.175 329.86 283.2 330.049C286.244 353.455 297.671 365.834 317.527 367.287C317.721 367.301 317.866 367.466 317.852 367.656C317.837 367.846 317.669 367.988 317.475 367.974C297.261 366.495 285.587 353.848 282.503 330.136ZM287.647 329.781C287.629 329.592 287.771 329.424 287.964 329.406C288.157 329.388 288.329 329.527 288.347 329.716C290.343 350.327 299.843 361.072 316.913 362.303C317.106 362.318 317.252 362.483 317.238 362.672C317.223 362.863 317.055 363.005 316.861 362.991C299.424 361.732 289.673 350.705 287.647 329.781Z" fill="#263E4B"/>
<path fill-rule="evenodd" clip-rule="evenodd" d="M474.686 146.941C473.782 146.941 473.046 146.117 473.046 145.101C473.046 144.085 473.782 143.261 474.686 143.261C475.59 143.261 476.325 144.085 476.325 145.101C476.325 146.117 475.59 146.941 474.686 146.941ZM489.209 146.941C488.304 146.941 487.569 146.117 487.569 145.101C487.569 144.085 488.304 143.261 489.209 143.261C490.113 143.261 490.848 144.085 490.848 145.101C490.848 146.117 490.113 146.941 489.209 146.941ZM471.439 143.485C471.313 143.63 471.093 143.648 470.947 143.525C470.797 143.402 470.779 143.184 470.905 143.039C470.961 142.974 471.06 142.866 471.2 142.729C471.434 142.503 471.692 142.277 471.978 142.066C472.812 141.45 473.683 141.077 474.564 141.077C475.838 141.077 476.532 141.376 477.234 142.133C477.347 142.253 477.459 142.383 477.609 142.562C477.651 142.615 477.918 142.943 478.003 143.044C478.124 143.192 478.101 143.409 477.951 143.529C477.801 143.649 477.581 143.627 477.459 143.48C477.375 143.376 477.103 143.047 477.061 142.997C476.92 142.827 476.817 142.706 476.719 142.598C476.147 141.984 475.641 141.767 474.564 141.767C473.866 141.767 473.126 142.084 472.404 142.617C472.142 142.808 471.908 143.014 471.697 143.219C471.57 143.341 471.481 143.434 471.439 143.485ZM486.44 143.475C486.318 143.625 486.098 143.651 485.948 143.533C485.793 143.415 485.765 143.198 485.887 143.048C485.939 142.984 486.032 142.876 486.163 142.739C486.379 142.512 486.623 142.286 486.89 142.074C487.667 141.454 488.482 141.077 489.312 141.077C490.506 141.077 491.167 141.38 491.823 142.142C491.926 142.262 492.029 142.393 492.165 142.572C492.207 142.624 492.455 142.952 492.535 143.053C492.652 143.205 492.619 143.422 492.464 143.537C492.31 143.652 492.09 143.622 491.973 143.47C491.893 143.366 491.645 143.037 491.607 142.987C491.476 142.818 491.378 142.696 491.284 142.588C490.759 141.98 490.3 141.767 489.312 141.767C488.674 141.767 487.995 142.08 487.33 142.61C487.091 142.8 486.871 143.005 486.679 143.21C486.562 143.332 486.482 143.425 486.44 143.475ZM483.976 149.816H486.74L483.648 142.007C483.577 141.829 483.666 141.63 483.845 141.56C484.027 141.491 484.229 141.579 484.299 141.757L487.578 150.036C487.672 150.262 487.499 150.506 487.255 150.506H483.976C483.779 150.506 483.624 150.351 483.624 150.161C483.624 149.97 483.779 149.816 483.976 149.816ZM482.266 154.604C482.092 154.694 481.882 154.631 481.788 154.463C481.699 154.295 481.764 154.086 481.933 153.996C483.207 153.326 484.43 153.326 485.564 154.006C485.728 154.105 485.779 154.317 485.681 154.48C485.578 154.643 485.362 154.694 485.194 154.594C484.285 154.047 483.324 154.047 482.266 154.604Z" fill="#263E4B"/>
<path fill-rule="evenodd" clip-rule="evenodd" d="M223.815 356.649L242.555 413.45L335.079 401.262V334.803L243.675 352.75L242.555 360.558L236.56 354.146L223.815 356.649Z" fill="white"/>
<path d="M236.819 353.704C236.736 353.614 236.612 353.574 236.491 353.598L223.747 356.101C223.541 356.141 223.416 356.349 223.481 356.545L242.22 413.346C242.273 413.504 242.433 413.604 242.602 413.581L335.126 401.393C335.3 401.37 335.43 401.224 335.43 401.052V334.592C335.43 334.374 335.228 334.211 335.01 334.254L243.606 352.201C243.459 352.23 243.347 352.346 243.327 352.491L242.311 359.577L236.819 353.704ZM236.435 354.312L242.296 360.581C242.497 360.796 242.861 360.684 242.903 360.396L243.988 352.829L334.728 335.012V400.75L242.799 412.86L224.271 356.7L236.435 354.312Z" fill="#263E4B"/>
<path fill-rule="evenodd" clip-rule="evenodd" d="M203.202 514.762H234.356C246.628 483.411 257.894 463.835 268.156 456.036C268.762 455.575 265.147 450.468 257.312 440.715C262.391 444.658 265.904 447.188 267.852 448.304C268.77 448.83 268.848 441.318 268.087 425.768L276.474 450.695C279.668 449.12 282.103 448.017 283.781 447.384C307.361 438.492 326.725 460.95 341.872 514.762H658.563" fill="white"/>
<path d="M267.675 448.492C268.009 448.683 268.311 448.506 268.476 448.161C268.582 447.937 268.664 447.597 268.731 447.129C268.858 446.238 268.931 444.85 268.951 442.958C268.985 439.611 268.854 434.677 268.557 428.154L276.141 450.693C276.208 450.893 276.441 450.987 276.632 450.893C279.816 449.323 282.242 448.224 283.907 447.596C307.21 438.809 326.435 461.106 341.533 514.744C341.575 514.895 341.714 514.996 341.872 514.996H658.563C658.755 514.996 658.915 514.845 658.915 514.652C658.915 514.463 658.755 514.307 658.563 514.307H342.139C326.953 460.505 307.475 437.97 283.655 446.953C282.029 447.566 279.705 448.614 276.68 450.098L268.42 425.55C268.292 425.169 267.716 425.274 267.736 425.674C268.116 433.443 268.287 439.203 268.248 442.951C268.228 444.815 268.157 446.178 268.035 447.034C267.985 447.385 267.927 447.644 267.867 447.802C265.906 446.651 262.457 444.16 257.53 440.336C257.203 440.082 256.778 440.498 257.036 440.819C260.949 445.69 263.809 449.4 265.611 451.947C266.507 453.213 267.14 454.189 267.509 454.871C267.686 455.198 267.798 455.452 267.846 455.626C267.856 455.659 267.862 455.688 267.866 455.711C257.582 463.578 246.345 483.103 234.115 514.307H203.202C203.008 514.307 202.851 514.463 202.851 514.652C202.851 514.845 203.008 514.996 203.202 514.996H234.356C234.502 514.996 234.632 514.909 234.684 514.776C246.933 483.48 258.176 463.946 268.371 456.198C268.947 455.761 268.242 454.455 266.188 451.554C264.664 449.402 262.396 446.43 259.382 442.638C263.256 445.592 266.018 447.542 267.675 448.492Z" fill="#263E4B"/>
<path d="M478.307 109.342H464.998C459.02 109.342 454.166 114.071 454.106 119.927L446.206 131.107C446.045 131.336 446.211 131.649 446.495 131.649H499.904C500.213 131.649 500.368 131.283 500.157 131.064L488.726 119.435C488.651 113.848 484.013 109.342 478.307 109.342ZM454.746 120.232C454.787 120.174 454.809 120.106 454.809 120.035C454.809 114.511 459.371 110.032 464.998 110.032H478.307C483.676 110.032 488.028 114.305 488.028 119.576C488.028 119.665 488.061 119.751 488.126 119.815L499.075 130.959H447.167L454.746 120.232Z" fill="#263E4B"/>
<path fill-rule="evenodd" clip-rule="evenodd" d="M488.234 119.805L454.307 120.265L451.964 123.715H492.019L488.234 119.805Z" fill="#147587"/>
<path d="M488.463 119.231L454.536 119.69C454.421 119.692 454.313 119.75 454.249 119.844L451.906 123.294C451.751 123.523 451.918 123.83 452.199 123.83H492.253C492.563 123.83 492.722 123.467 492.506 123.247L488.721 119.338C488.656 119.268 488.562 119.229 488.463 119.231ZM491.434 123.14H452.855L454.731 120.378L488.318 119.922L491.434 123.14Z" fill="#263E4B"/>
<path fill-rule="evenodd" clip-rule="evenodd" d="M393.17 505.684L389.188 524.543H404.648H464.613C461.155 517.376 457.095 512.396 452.433 509.594C447.771 506.796 439.26 505.491 426.901 505.684L433.225 473.492L395.278 473.722L394.81 497.865L393.17 505.684Z" fill="white"/>
<path fill-rule="evenodd" clip-rule="evenodd" d="M495.064 502.927V524.773L504.434 524.543H564.399C560.942 517.376 556.88 512.396 552.219 509.594C547.557 506.796 539.045 505.491 526.687 505.684L532.543 474.007L491.551 473.722L494.596 497.865L495.064 502.927Z" fill="white"/>
<path fill-rule="evenodd" clip-rule="evenodd" d="M394.81 498.099C398.397 498.664 401.208 500.888 403.243 504.765C405.278 508.643 406.371 513.852 406.522 520.404L390.125 520.174" fill="#147587"/>
<path fill-rule="evenodd" clip-rule="evenodd" d="M495.064 498.099C501.464 499.587 505.68 502.27 507.713 506.143C509.747 510.021 510.684 514.776 510.524 520.404L495.064 520.174V498.099Z" fill="#147587"/>
<path d="M406.462 473.538L409.071 455.897H403.477V455.208H409.172L410.566 445.779H405.585V445.09H432.757V445.779H427.31L425.529 455.208H430.649V455.897H425.398L422.083 473.442L433.651 473.373L428.47 499.748L430.259 494.938C430.334 494.736 430.428 494.538 430.539 494.355C431.555 492.659 433.782 492.09 435.513 493.087C435.804 493.252 436.067 493.463 436.291 493.711C437.466 495.016 437.343 497.001 436.016 498.154L427.688 505.39C429.256 505.004 433.104 504.035 438.758 502.592C438.946 502.546 439.138 502.656 439.187 502.84C439.236 503.024 439.123 503.212 438.936 503.258C434.817 504.31 431.846 505.064 429.886 505.555C440.701 505.601 448.272 506.92 452.617 509.529C457.344 512.373 461.446 517.404 464.931 524.626L465.168 525.117H388.757L392.826 505.845L394.459 498.058L394.934 473.607L406.462 473.538ZM407.173 473.534L413.968 473.492L416.714 455.897H409.78L407.173 473.534ZM414.68 473.488L421.368 473.446L424.684 455.897H417.425L414.68 473.488ZM427.198 506.254C427.168 506.263 427.137 506.263 427.106 506.263L419.181 506.488C418.987 506.497 418.825 506.345 418.82 506.157C418.814 505.964 418.967 505.808 419.161 505.799L426.238 505.597L417.67 498.154C416.343 497.001 416.22 495.016 417.395 493.711C417.619 493.463 417.882 493.252 418.173 493.087C419.904 492.09 422.131 492.659 423.147 494.355C423.258 494.538 423.352 494.736 423.427 494.938L426.843 504.127L426.953 503.828L432.799 474.067L395.623 474.292L395.167 497.837C402.46 499.964 406.642 507.324 406.868 519.829H461.508C458.741 515.401 455.654 512.162 452.249 510.117C447.695 507.384 439.338 506.088 427.198 506.254ZM427.632 504.012L427.513 504.618L435.55 497.639C436.587 496.739 436.683 495.186 435.765 494.171C435.59 493.978 435.385 493.812 435.157 493.679C433.761 492.875 431.965 493.335 431.145 494.704C431.056 494.855 430.98 495.012 430.919 495.172L427.632 504.012ZM461.93 520.519H390.446L389.62 524.428H464.055C463.37 523.041 462.662 521.736 461.93 520.519ZM390.591 519.829H406.166C405.943 507.669 401.946 500.598 395.078 498.531L393.514 505.987L390.591 519.829ZM422.766 495.172C422.706 495.012 422.631 494.855 422.541 494.704C421.721 493.335 419.925 492.875 418.529 493.679C418.301 493.812 418.096 493.978 417.921 494.171C417.003 495.186 417.099 496.739 418.136 497.639L426.33 504.756L422.766 495.172ZM426.595 445.779H419.004L417.532 455.208H424.814L426.595 445.779ZM418.293 445.779H411.277L409.882 455.208H416.821L418.293 445.779Z" fill="#263E4B"/>
<path fill-rule="evenodd" clip-rule="evenodd" d="M391.765 228.118H384.035L392.468 215.011" fill="#147587"/>
<path d="M499.787 473.423L497.191 455.897H492.722V455.208H497.093L495.697 445.779H491.317V445.09H519.66V445.779H513.607L514.577 455.208H519.894V455.897H514.647L516.455 473.515L532.96 473.607L527.614 503.989L530.983 494.938C531.058 494.736 531.151 494.538 531.264 494.355C532.276 492.659 534.506 492.09 536.234 493.087C536.529 493.252 536.792 493.463 537.012 493.711C538.188 495.016 538.066 497.001 536.74 498.154L528.785 505.064C530.767 504.572 534.098 503.727 538.544 502.592C538.731 502.546 538.923 502.656 538.975 502.84C539.022 503.024 538.909 503.212 538.722 503.258C534.604 504.31 531.634 505.064 529.676 505.551C540.615 505.583 548.26 506.901 552.636 509.529C557.363 512.373 561.467 517.404 564.952 524.626L565.186 525.117H494.718L494.713 524.777L494.484 498.14L491.148 473.373L499.787 473.423ZM500.494 473.428L507.549 473.465L505.966 455.897H497.903L500.494 473.428ZM508.257 473.469L515.748 473.511L513.939 455.897H506.669L508.257 473.469ZM495.135 497.759C505.315 499.771 510.566 507.163 510.871 519.829H561.527C558.763 515.401 555.676 512.162 552.27 510.117C547.731 507.393 539.42 506.097 527.352 506.254C527.305 506.263 527.258 506.263 527.211 506.254C527.127 506.258 527.043 506.258 526.958 506.258C526.94 506.263 526.916 506.263 526.893 506.263L518.966 506.488C518.774 506.497 518.61 506.345 518.605 506.157C518.601 505.964 518.751 505.808 518.947 505.799L526.026 505.597L517.458 498.154C516.127 497.001 516.005 495.016 517.181 493.711C517.406 493.463 517.668 493.252 517.959 493.087C519.692 492.09 521.918 492.659 522.934 494.355C523.042 494.538 523.136 494.736 523.211 494.938L526.799 504.581L532.126 474.292L491.954 474.067L495.135 497.759ZM495.186 498.471L495.374 519.829H510.163C509.868 507.549 504.884 500.465 495.186 498.471ZM561.949 520.519H495.378L495.411 524.428H564.076C563.392 523.041 562.68 521.736 561.949 520.519ZM522.555 495.172C522.494 495.012 522.414 494.855 522.325 494.704C521.505 493.335 519.711 492.875 518.315 493.679C518.085 493.812 517.884 493.978 517.706 494.171C516.788 495.186 516.886 496.739 517.921 497.639L526.115 504.756L522.555 495.172ZM531.643 495.172L528.078 504.756L536.272 497.639C537.312 496.739 537.406 495.186 536.487 494.171C536.314 493.978 536.108 493.812 535.878 493.679C534.482 492.875 532.688 493.335 531.868 494.704C531.779 494.855 531.704 495.012 531.643 495.172ZM512.899 445.779H505.755L506.608 455.208H513.869L512.899 445.779ZM505.048 445.779H496.409L497.8 455.208H505.9L505.048 445.779Z" fill="#263E4B"/>
<path d="M271.206 381.248L271.897 385.529L267.881 386.152L268.399 389.363L263.236 390.165L262.717 386.955L248.545 389.156L247.854 384.875L260.051 370.45L265.215 369.648L267.19 381.872L271.206 381.248ZM253.419 384.01L262.025 382.673L260.87 375.52L253.419 384.01ZM285.572 386.984C277.596 388.223 273.227 385.206 272.168 378.644C271.112 372.11 274.321 367.945 282.297 366.706C290.243 365.472 294.641 368.484 295.692 374.99C296.747 381.525 293.518 385.75 285.572 386.984ZM284.885 382.732C289.417 382.028 291.124 379.482 290.528 375.792C289.936 372.131 287.516 370.255 282.983 370.959C278.451 371.663 276.735 374.152 277.331 377.842C277.932 381.56 280.352 383.436 284.885 382.732ZM321.123 373.494L321.814 377.775L317.798 378.399L318.316 381.61L313.153 382.412L312.634 379.201L298.462 381.402L297.771 377.122L309.969 362.697L315.132 361.895L317.106 374.118L321.123 373.494ZM303.336 376.257L311.943 374.92L310.787 367.766L303.336 376.257Z" fill="#147587"/>
<path d="M271.722 380.627L272.524 385.589L268.507 386.213L269.026 389.423L263.168 390.334L262.65 387.123L248.478 389.324L247.706 384.549L260.09 369.904L265.732 369.028L267.706 381.251L271.722 380.627ZM267.122 382.04L265.148 369.816L260.462 370.544L248.45 384.749L249.062 388.535L263.234 386.334L263.752 389.545L268.222 388.851L267.704 385.64L271.72 385.016L271.138 381.416L267.122 382.04ZM252.753 384.272L261.323 374.505L262.652 382.734L252.753 384.272ZM261.848 382.161L260.866 376.082L254.535 383.297L261.848 382.161ZM285.851 387.099C277.833 388.344 273.157 385.356 272.045 378.472C270.938 371.62 274.445 367.386 282.466 366.14C290.457 364.899 295.161 367.885 296.263 374.711C297.37 381.567 293.839 385.858 285.851 387.099ZM285.741 386.418C293.361 385.235 296.613 381.283 295.569 374.818C294.53 368.386 290.199 365.637 282.576 366.82C274.923 368.009 271.696 371.905 272.739 378.364C273.788 384.856 278.092 387.606 285.741 386.418ZM285.164 382.846C280.584 383.558 277.862 381.711 277.209 377.67C276.561 373.661 278.57 371.105 283.153 370.393C287.724 369.683 290.455 371.521 291.099 375.513C291.749 379.535 289.734 382.136 285.164 382.846ZM285.054 382.166C289.247 381.514 290.993 379.261 290.405 375.62C289.823 372.013 287.459 370.421 283.263 371.073C279.055 371.727 277.318 373.938 277.903 377.562C278.494 381.22 280.85 382.818 285.054 382.166ZM321.639 372.874L322.441 377.836L318.425 378.459L318.943 381.67L313.085 382.58L312.566 379.37L298.395 381.571L297.623 376.795L310.007 362.151L315.649 361.275L317.623 373.498L321.639 372.874ZM317.039 374.286L315.065 362.063L310.379 362.791L298.367 376.995L298.979 380.782L313.151 378.581L313.669 381.792L318.139 381.097L317.62 377.887L321.637 377.263L321.055 373.663L317.039 374.286ZM302.67 376.518L311.24 366.752L312.569 374.981L302.67 376.518ZM311.765 374.408L310.783 368.329L304.452 375.544L311.765 374.408Z" fill="#263E4B"/>
<path d="M392.376 214.641C392.419 214.484 392.455 214.338 392.485 214.203L392.869 206.251C393.506 193.068 404.578 182.7 418.022 182.7H444.469V183.39H418.022C404.953 183.39 394.19 193.468 393.571 206.283L393.459 208.596C394.701 203.919 397.097 199.736 400.648 196.143C406.002 190.728 412.632 193.427 420.393 204.001C420.506 204.155 420.471 204.371 420.313 204.482C420.156 204.594 419.936 204.558 419.823 204.404C412.28 194.128 406.105 191.614 401.152 196.624C396.491 201.339 393.874 207.088 393.286 213.661C393.27 213.844 393.236 214.054 393.184 214.293L392.116 236.414L391.414 236.381L391.808 228.234H384.269C383.993 228.234 383.825 227.934 383.972 227.704L392.376 214.641ZM391.841 227.544L392.403 215.89L384.907 227.544H391.841Z" fill="#263E4B"/>
<path d="M496.076 245.516C495.884 245.509 495.73 245.348 495.739 245.158C495.744 244.968 495.908 244.819 496.104 244.826C498.69 244.923 499.922 243.465 499.866 240.276C499.815 237.072 498.742 235.581 496.624 235.617C496.428 235.621 496.268 235.469 496.264 235.278C496.264 235.088 496.418 234.931 496.61 234.927C499.187 234.883 500.513 236.724 500.569 240.265C500.63 243.821 499.103 245.63 496.076 245.516ZM495.327 269.78C495.135 269.763 494.989 269.596 495.008 269.406C495.027 269.216 495.195 269.076 495.392 269.093C497.969 269.323 499.276 267.93 499.393 264.742C499.51 261.541 498.517 259.996 496.399 259.923C496.207 259.917 496.053 259.757 496.062 259.566C496.067 259.376 496.231 259.227 496.423 259.234C499 259.322 500.227 261.228 500.096 264.767C499.965 268.321 498.344 270.049 495.327 269.78ZM479.97 296.63C479.792 296.554 479.708 296.35 479.787 296.176C479.867 296.001 480.073 295.922 480.251 295.998C482.636 297.024 484.228 296.351 485.194 293.901C486.163 291.435 485.653 289.913 483.662 289.162C483.479 289.094 483.39 288.895 483.46 288.717C483.53 288.539 483.732 288.45 483.915 288.518C486.304 289.417 486.95 291.352 485.849 294.149C484.744 296.963 482.725 297.816 479.97 296.63ZM454.67 204.803L455.349 204.981C454.067 209.7 451.393 212.485 447.348 213.279L447.211 212.603C450.974 211.864 453.453 209.282 454.67 204.803Z" fill="#263E4B"/>
<path d="M415.318 213.95L416.255 217.399C416.305 217.583 416.497 217.693 416.685 217.643C416.873 217.594 416.984 217.405 416.934 217.221L415.997 213.772C415.947 213.588 415.754 213.478 415.567 213.528C415.38 213.577 415.268 213.766 415.318 213.95Z" fill="#263E4B"/>
<path d="M415.579 214.197L418.624 214.887C418.813 214.93 419.001 214.814 419.045 214.628C419.089 214.443 418.97 214.258 418.782 214.215L415.737 213.525C415.547 213.482 415.359 213.598 415.315 213.783C415.271 213.969 415.389 214.154 415.579 214.197Z" fill="#263E4B"/>
<path d="M547.801 217.381C545.435 214.576 541.317 214.279 537.921 216.472C536.595 217.326 535.635 218.543 535.18 219.934C534.037 223.438 538.525 232.391 548.649 247.02C548.757 247.177 548.977 247.218 549.136 247.111C549.295 247.004 549.338 246.789 549.23 246.632C539.27 232.241 534.81 223.337 535.85 220.144C536.253 218.907 537.115 217.817 538.305 217.048C541.42 215.038 545.135 215.305 547.262 217.821C547.384 217.968 547.609 217.988 547.754 217.866C547.904 217.745 547.927 217.527 547.801 217.381Z" fill="#263E4B"/>
</svg>
