<svg width="339" height="252" viewBox="0 0 339 252" fill="none" xmlns="http://www.w3.org/2000/svg">
<g clip-path="url(#clip0_3_4)">
<path d="M117.785 241.39C117.515 241.404 117.248 241.327 117.02 241.169C116.792 241.012 116.614 240.783 116.51 240.512C116.405 240.241 116.38 239.942 116.438 239.655C116.495 239.368 116.632 239.107 116.831 238.908L116.921 238.518C116.909 238.486 116.897 238.455 116.885 238.424C116.613 237.726 116.158 237.131 115.576 236.713C114.994 236.296 114.312 236.075 113.615 236.078C112.918 236.08 112.238 236.307 111.659 236.729C111.08 237.151 110.629 237.75 110.362 238.45C109.295 241.245 107.937 244.044 107.602 246.999C107.455 248.305 107.517 249.629 107.786 250.912C105.28 244.967 103.979 238.506 103.971 231.967C103.97 230.325 104.054 228.686 104.222 227.055C104.36 225.718 104.553 224.391 104.799 223.073C106.142 215.922 109.025 209.219 113.213 203.516C115.239 202.313 116.878 200.464 117.909 198.217C118.282 197.409 118.546 196.547 118.692 195.657C118.464 195.69 117.83 191.903 118.003 191.671C117.684 191.145 117.114 190.884 116.766 190.371C115.035 187.819 112.651 188.265 111.406 191.732C108.747 193.192 108.722 195.612 110.353 197.94C111.391 199.421 111.534 201.425 112.444 203.01C112.351 203.141 112.253 203.267 112.16 203.398C110.447 205.793 108.954 208.365 107.703 211.077C108.007 208.039 107.644 204.965 106.643 202.11C105.628 199.448 103.727 197.207 102.053 194.906C100.041 192.142 95.9172 193.348 95.5629 196.852C95.5594 196.886 95.5561 196.92 95.5528 196.953C95.8015 197.106 96.045 197.268 96.2832 197.439C96.5824 197.657 96.8143 197.967 96.9484 198.331C97.0825 198.694 97.1127 199.093 97.0348 199.475C96.957 199.857 96.7748 200.204 96.5122 200.472C96.2495 200.74 95.9187 200.915 95.563 200.974L95.5266 200.981C95.6152 201.955 95.7718 202.921 95.9951 203.87C93.8471 212.905 98.4845 216.195 105.106 216.343C105.252 216.425 105.395 216.506 105.541 216.584C104.284 220.459 103.495 224.495 103.195 228.592C103.025 231.008 103.035 233.436 103.225 235.851L103.213 235.765C102.734 233.08 101.417 230.657 99.4843 228.905C96.6146 226.342 92.5601 225.397 89.4641 223.337C89.1351 223.107 88.7525 222.984 88.3615 222.983C87.9705 222.982 87.5874 223.103 87.2573 223.331C86.9273 223.559 86.664 223.885 86.4987 224.27C86.3334 224.655 86.2728 225.084 86.3242 225.506C86.3283 225.536 86.3325 225.566 86.3368 225.596C86.7983 225.8 87.2477 226.036 87.6823 226.301C87.931 226.453 88.1744 226.615 88.4126 226.787C88.7119 227.004 88.9437 227.315 89.0779 227.678C89.212 228.041 89.2421 228.44 89.1642 228.822C89.0864 229.204 88.9042 229.552 88.6416 229.819C88.379 230.087 88.0482 230.262 87.6925 230.322L87.656 230.328C87.6298 230.332 87.6073 230.336 87.5811 230.34C88.3697 232.388 89.4765 234.273 90.853 235.912C92.1961 243.799 97.9648 244.547 104.135 242.25H104.139C104.816 245.45 105.797 248.564 107.066 251.544H117.523C117.56 251.417 117.594 251.287 117.628 251.16C116.66 251.227 115.688 251.164 114.734 250.973C115.51 249.938 116.286 248.894 117.062 247.859C117.079 247.84 117.095 247.819 117.111 247.798C117.504 247.268 117.901 246.742 118.295 246.212L118.295 246.212C118.316 244.587 118.145 242.967 117.785 241.39L117.785 241.39Z" fill="#F2F2F2"/>
<path d="M37.3564 224.19L40.2416 227.506L53.6383 216.712L49.3802 211.817L37.3564 224.19Z" fill="#A0616A"/>
<path d="M42.0843 226.024L38.818 222.687L38.016 221.87L29.7006 229.1L31.8636 231.586L34.4098 229.81L33.2401 233.169L38.9751 239.761C39.2499 240.077 39.6104 240.289 40.004 240.367C40.3977 240.445 40.8038 240.383 41.1631 240.192C41.5225 240.001 41.8162 239.69 42.0015 239.304C42.1868 238.919 42.2539 238.479 42.1931 238.049L40.9554 229.34L43.1364 227.097L42.0843 226.024Z" fill="#2F2E41"/>
<path d="M100.764 103.443L99.8495 114.303C99.8495 114.303 98.2528 122.486 99.3584 121.823C100.464 121.159 98.4817 124.144 99.0038 126.733C99.5259 129.321 94.5444 148.624 96.8007 146.625C99.0569 144.625 95.4968 158.439 93.2452 165.254C92.5558 167.361 91.8474 169.493 91.1344 171.61C90.9938 172.039 90.853 172.462 90.7078 172.891C89.7836 175.646 88.8595 178.359 87.9731 180.92C87.8465 181.277 87.7244 181.634 87.6026 181.987C87.5978 181.997 87.5977 182.007 87.5932 182.007C84.6756 190.358 82.1755 196.928 81.1764 198.015C80.6558 198.581 72.3959 205.07 64.0701 211.568C55.3317 218.389 46.5227 225.225 46.5227 225.225L38.2955 215.838C38.2955 215.838 38.4925 215.777 38.8631 215.655C39.5479 215.44 40.8144 215.037 42.4749 214.502C49.398 212.283 40.6033 208.829 46.8888 206.36C48.6617 205.666 49.8437 205.126 50.111 204.84C51.673 203.182 53.7698 199.229 54.7594 200.886C55.7491 202.544 60.238 190.225 61.5325 189.006C62.2267 188.348 64.4923 185.272 66.4342 182.568C68.1039 180.242 69.5392 178.186 69.5392 178.186C69.5392 178.186 69.5674 177.084 69.6095 175.329C69.6707 172.733 69.7598 168.698 69.8537 164.658C69.8489 164.652 69.8489 164.652 69.8537 164.652C69.8864 163.132 69.9192 161.612 69.9522 160.168C69.9755 159.051 69.9989 157.975 70.0225 156.98C70.0834 154.001 70.1255 151.746 70.1255 151.185C70.1255 149.344 70.1255 150.777 71.4624 149.665C71.662 149.494 71.8516 149.31 72.03 149.114C72.3158 148.834 72.5794 148.529 72.818 148.201C72.9165 147.971 72.302 148.283 71.5045 148.109C71.0727 148.015 70.6733 147.792 70.3507 147.466C68.6714 145.824 70.4821 140.774 70.4821 140.774C66.664 132.469 66.9409 125.659 68.7278 120.409C70.064 116.643 72.1849 113.264 74.924 110.539C75.9664 109.458 77.1022 108.49 78.3155 107.646L78.4327 106.958L79.7226 99.3617C80.4086 98.9519 81.1219 98.599 81.8567 98.3059C84.1477 97.4119 86.6061 97.1456 89.0143 97.5305C91.4078 97.9072 93.7251 98.7231 95.8674 99.9434C97.6185 100.9 99.2618 102.074 100.764 103.443Z" fill="#2F2E41"/>
<path d="M64.7389 241.11L68.9186 241.533L72.4408 223.81L66.2713 223.186L64.7389 241.11Z" fill="#A0616A"/>
<path d="M76.7768 248.058L70.5664 242.4L70.8479 239.146L69.4034 239.095L64.9286 238.937H64.9238L63.8263 238.896L61.9641 250.292L65.102 250.608L65.9322 247.446L67.0909 250.812L68.7513 250.981L75.3978 251.654C75.4541 251.659 75.5151 251.664 75.5714 251.664C75.8356 251.665 76.0969 251.604 76.3379 251.486C76.5789 251.368 76.7941 251.196 76.9692 250.981C77.2413 250.657 77.4077 250.244 77.4428 249.807C77.4703 249.479 77.4241 249.148 77.3081 248.843C77.192 248.538 77.0097 248.269 76.7768 248.058Z" fill="#2F2E41"/>
<path d="M87.9731 180.92C86.383 190.332 79.652 212.4 75.5808 225.316C73.7279 231.218 72.4334 235.213 72.4334 235.213L70.3227 234.488H70.3178L66.7484 233.264L65.4491 232.815H65.4443L63.8683 232.269C63.8683 232.269 64.0513 221.73 64.0701 211.569C64.0841 207.309 64.0653 203.111 63.9904 199.785C63.9059 196.158 63.7605 193.561 63.5214 193.046C62.5315 190.934 64.1874 190.709 65.937 190.179C67.6911 189.643 66.3215 188.837 65.6413 187.123C65.1818 185.981 66.087 184.455 66.7296 183.588C66.9069 183.344 67.0964 183.111 67.2972 182.889C67.2972 182.889 66.9875 182.772 66.4342 182.568C68.1038 180.242 69.5392 178.186 69.5392 178.186C69.5392 178.186 69.5673 177.084 69.6095 175.329C69.6706 172.733 69.7597 168.698 69.8536 164.658C69.8488 164.652 69.8488 164.652 69.8536 164.652C69.8864 163.132 69.9191 161.612 69.9521 160.168C72.635 162.408 75.243 164.602 77.607 166.632C77.6099 166.634 77.6123 166.637 77.6139 166.641C77.6155 166.644 77.6164 166.648 77.6164 166.652C83.2966 171.534 87.5604 175.452 88.1607 176.697C88.4328 177.257 88.3389 178.757 87.9731 180.92Z" fill="#2F2E41"/>
<path d="M227.812 14.7388C228.594 14.6593 229.373 14.9147 229.985 15.4508C230.596 15.9868 230.991 16.7612 231.085 17.6091C231.102 17.7818 231.106 17.9557 231.096 18.129L240.769 22.6212L240.4 28.7611L227.761 21.0493C227.103 20.95 226.494 20.6167 226.029 20.1014C225.564 19.5862 225.268 18.9179 225.189 18.201C225.148 17.7925 225.181 17.3792 225.286 16.9846C225.391 16.59 225.567 16.2218 225.803 15.9011C226.04 15.5804 226.332 15.3134 226.663 15.1154C226.994 14.9174 227.357 14.7922 227.733 14.7471C227.759 14.7439 227.785 14.7412 227.812 14.7388Z" fill="#FFB6B6"/>
<path d="M293.621 52.6396C293.382 51.4493 292.938 50.3189 292.312 49.3084C292.138 49.0208 291.949 48.7449 291.744 48.4819C290.985 47.4976 290.276 46.5946 289.62 45.7886C289.221 45.2835 288.832 44.8142 288.466 44.3808C286.341 41.8454 284.948 40.5038 284.31 40.3914C284 40.3354 283.696 40.2945 283.4 40.2537C281.885 40.0497 280.787 39.9018 280.755 38.1621C280.751 37.9129 280.767 37.6638 280.801 37.4174C280.858 37.0036 280.941 36.5945 281.05 36.1931C281.112 35.9656 281.161 35.7339 281.195 35.4994C281.242 35.1985 281.224 34.9739 281.073 34.8361C280.886 34.668 280.572 34.6934 279.98 34.9485C279.887 34.9893 279.779 35.0351 279.666 35.0912C279.629 35.1066 279.591 35.127 279.549 35.1475C279.474 35.1831 279.39 35.2239 279.305 35.2698C278.597 35.6372 277.504 35.683 276.256 35.5452C272.574 35.1372 267.593 33.1172 267.532 33.0915L236.161 19.8335L235.871 20.3437L235.181 21.5577L234.942 21.9759L234.67 22.4554L233.483 24.5367L232.883 25.5876L243.014 33.8975L244.117 34.8005L245.064 35.5811L264.408 51.451L271.622 56.6287L273.231 57.7814L280.089 62.6991C281.074 63.4074 282.18 63.8937 283.342 64.1295C284.503 64.3652 285.696 64.3456 286.85 64.0717C288.004 63.7978 289.096 63.2753 290.062 62.5349C291.027 61.7945 291.847 60.8513 292.472 59.7609C293.689 57.639 294.101 55.0856 293.621 52.6396Z" fill="#E6E6E6"/>
<path d="M338.531 252H0.469055C0.344654 252 0.225347 251.946 0.137383 251.851C0.0494177 251.755 0 251.625 0 251.49C0 251.355 0.0494177 251.225 0.137383 251.129C0.225347 251.034 0.344654 250.98 0.469055 250.98H338.531C338.655 250.98 338.775 251.034 338.863 251.129C338.951 251.225 339 251.355 339 251.49C339 251.625 338.951 251.755 338.863 251.851C338.775 251.946 338.655 252 338.531 252Z" fill="#E6E6E6"/>
<path d="M77.3541 85.084L78.2331 93.951L77.7162 105.578L101.396 102.519L103.621 85.084L100.786 85.1146L77.3541 85.084Z" fill="#FFB6B6"/>
<path d="M97.4967 56.4448L88.5847 48.7929L83.9065 48.4971L76.9648 53.3335L75.2651 62.7643L71.2451 73.3842L77.1413 102.044C77.1413 102.044 77.6943 104.1 76.2452 104.347C74.796 104.594 74.9698 107.626 74.9698 107.626C74.9698 107.626 75.2649 110.253 73.8577 110.485C72.4506 110.716 68.6983 110.716 71.9817 115.307C75.2651 119.898 101.235 102.534 101.235 102.534L105.007 81.0096C105.007 81.0096 112.321 70.3244 104.444 64.2048L97.4967 56.4448Z" fill="#E6E6E6"/>
<path d="M58.5915 121.515C58.1988 120.982 57.9183 120.362 57.7698 119.699C57.6213 119.035 57.6084 118.344 57.732 117.675C57.8556 117.005 58.1127 116.373 58.4851 115.823C58.8576 115.274 59.3363 114.819 59.8877 114.492L71.0976 73.5781L78.1071 77.4161L65.8993 116.632C66.3427 117.676 66.4187 118.86 66.1129 119.961C65.807 121.061 65.1406 122.002 64.2398 122.604C63.339 123.206 62.2665 123.427 61.2255 123.227C60.1845 123.026 59.2473 122.417 58.5915 121.515Z" fill="#A0616A"/>
<path d="M78.5747 52.9549C78.5747 52.9549 76.5709 51.7968 75.2004 56.8084C74.1031 60.8205 65.1998 84.7187 65.0863 90.529C64.3535 90.6979 63.6933 91.1271 63.2096 91.749C62.7259 92.3708 62.4461 93.1501 62.4144 93.9639L73.4226 95.5682C75.3462 93.8038 75.8508 91.4206 75.1066 90.7133L77.4967 83.6139L87.468 61.0259L80.0367 53.7641L78.5747 52.9549Z" fill="#E6E6E6"/>
<path d="M137.395 108.067C137.537 107.402 137.543 106.711 137.413 106.042C137.283 105.374 137.02 104.745 136.642 104.2C136.265 103.654 135.782 103.205 135.227 102.885C134.673 102.564 134.06 102.379 133.433 102.344L107.718 70.4036L102.263 77.4825L128.864 107.101C128.879 108.25 129.281 109.354 129.995 110.202C130.708 111.051 131.683 111.586 132.735 111.705C133.786 111.824 134.841 111.519 135.7 110.849C136.559 110.178 137.162 109.188 137.395 108.067H137.395Z" fill="#A0616A"/>
<path d="M92.1151 55.6467C92.1151 55.6467 93.4613 53.6601 96.6898 57.5342C99.2745 60.6358 116.805 77.9966 119.218 83.1821C119.945 82.9898 120.711 83.0663 121.395 83.3995C122.078 83.7327 122.64 84.3038 122.992 85.0227L113.705 91.6465C111.269 90.9602 109.866 89.0487 110.256 88.0609L105.278 82.7837L87.3055 67.1066L91.1186 57.0639L92.1151 55.6467Z" fill="#E6E6E6"/>
<path d="M188.01 143.344C224.277 143.344 253.677 111.369 253.677 71.9264C253.677 32.4837 224.277 0.509079 188.01 0.509079C151.743 0.509079 122.342 32.4837 122.342 71.9264C122.342 111.369 151.743 143.344 188.01 143.344Z" fill="#147587"/>
<path opacity="0.2" d="M184.904 97.2028C181.895 100.475 177.815 102.313 173.561 102.313C169.306 102.313 165.226 100.475 162.218 97.2028V97.2028C159.633 94.3902 158.009 90.7017 157.614 86.748C157.22 82.7944 158.08 78.8129 160.05 75.463L156.521 79.3788C153.513 82.6504 151.823 87.0878 151.823 91.7147C151.823 96.3415 153.513 100.779 156.521 104.051V104.051C159.529 107.322 163.61 109.16 167.864 109.16C172.118 109.16 176.198 107.322 179.207 104.051L187.027 95.2191L187.146 94.6701L184.904 97.2028Z" fill="black"/>
<path opacity="0.2" d="M192.353 42.6416C195.87 40.0371 200.193 39.0583 204.373 39.9207C208.553 40.7831 212.247 43.4159 214.641 47.2401V47.2401C216.699 50.5274 217.663 54.4806 217.373 58.4449C217.082 62.4091 215.556 66.1467 213.045 69.0384L217.184 65.9066C220.7 63.302 223.121 59.285 223.914 54.7392C224.707 50.1934 223.807 45.4912 221.412 41.667V41.667C219.017 37.8428 215.324 35.21 211.144 34.3476C206.964 33.4853 202.64 34.464 199.124 37.0686L189.927 44.1601L189.716 44.6754L192.353 42.6416Z" fill="black"/>
<path d="M167.864 111.343C164.413 111.343 161.039 110.23 158.17 108.145C155.301 106.06 153.064 103.096 151.744 99.6288C150.423 96.1613 150.077 92.3459 150.751 88.6649C151.424 84.9838 153.086 81.6026 155.526 78.9488L170.333 62.519C171.953 60.7546 173.877 59.3546 175.994 58.3991C178.112 57.4436 180.381 56.9512 182.674 56.9502C184.966 56.9492 187.237 57.4396 189.355 58.3933C191.473 59.3469 193.398 60.7453 195.019 62.5083C195.283 62.7952 195.431 63.1845 195.431 63.5903C195.431 63.9961 195.283 64.3853 195.019 64.6723C194.755 64.9593 194.397 65.1205 194.024 65.1205C193.651 65.1205 193.293 64.9593 193.029 64.6723C190.284 61.6877 186.562 60.011 182.681 60.011C178.8 60.011 175.078 61.6877 172.333 64.6724C170.158 73.0109 165.459 78.7324 157.526 81.1022C156.165 82.579 155.085 84.333 154.347 86.264C153.609 88.195 153.229 90.2652 153.227 92.3562C153.226 94.4473 153.603 96.5181 154.338 98.4505C155.072 100.383 156.15 102.139 157.509 103.618C158.867 105.097 160.481 106.271 162.257 107.072C164.033 107.873 165.937 108.285 167.86 108.285C169.782 108.285 171.686 107.874 173.463 107.073C175.239 106.273 176.853 105.1 178.212 103.621C177.891 100.2 178.81 96.9843 186.014 94.8098C186.142 94.6644 186.295 94.5479 186.465 94.467C186.634 94.3861 186.817 94.3423 187.002 94.3383C187.187 94.3342 187.371 94.3699 187.543 94.4433C187.716 94.5168 187.873 94.6264 188.006 94.7661C188.14 94.9058 188.246 95.0726 188.32 95.2572C188.394 95.4418 188.434 95.6404 188.437 95.8417C188.44 96.043 188.407 96.243 188.339 96.4302C188.271 96.6175 188.17 96.7883 188.041 96.9329L180.22 105.764C178.603 107.537 176.677 108.944 174.556 109.901C172.435 110.859 170.161 111.349 167.864 111.343Z" fill="white"/>
<path d="M191.904 88.1004C189.611 88.1071 187.341 87.6194 185.223 86.6653C183.105 85.7112 181.182 84.3097 179.566 82.5421C179.302 82.255 179.154 81.8657 179.154 81.4599C179.154 81.054 179.302 80.6647 179.566 80.3778C179.83 80.0908 180.188 79.9296 180.561 79.9297C180.934 79.9297 181.292 80.091 181.556 80.378C182.915 81.8559 184.528 83.0283 186.304 83.8281C188.079 84.6279 189.982 85.0396 191.904 85.0396C193.825 85.0396 195.728 84.628 197.504 83.8281C199.279 83.0283 200.893 81.856 202.251 80.3781C204.127 68.092 211.772 66.3581 218.418 62.7962C219.777 61.3183 220.855 59.5638 221.59 57.6329C222.326 55.7019 222.704 53.6323 222.704 51.5423C222.704 49.4522 222.326 47.3827 221.59 45.4517C220.855 43.5208 219.777 41.7663 218.418 40.2884C217.059 38.8105 215.446 37.6382 213.67 36.8384C211.895 36.0386 209.992 35.6269 208.07 35.6269C206.148 35.627 204.245 36.0386 202.47 36.8385C200.694 37.6383 199.081 38.8106 197.722 40.2885C195.874 46.0892 194.059 51.9584 188.552 50.2613C188.422 50.4034 188.267 50.5162 188.096 50.5931C187.925 50.67 187.742 50.7096 187.557 50.7096C187.184 50.7096 186.826 50.5484 186.562 50.2614C186.299 49.9744 186.15 49.5852 186.15 49.1793C186.15 48.7735 186.299 48.3842 186.562 48.0973L195.732 38.1244C197.353 36.3624 199.276 34.9646 201.393 34.011C203.51 33.0573 205.779 32.5665 208.07 32.5665C210.361 32.5665 212.63 33.0573 214.747 34.0109C216.864 34.9645 218.788 36.3623 220.408 38.1243C222.028 39.8864 223.313 41.9783 224.19 44.2805C225.067 46.5828 225.518 49.0503 225.518 51.5423C225.518 54.0342 225.067 56.5018 224.19 58.804C223.313 61.1063 222.028 63.1982 220.408 64.9603L204.241 82.5423C202.625 84.3099 200.702 85.7113 198.584 86.6654C196.467 87.6194 194.196 88.1071 191.904 88.1004Z" fill="white"/>
<path d="M245.064 35.5811C242.306 30.4871 238.987 25.7779 235.181 21.5577C234.332 20.6191 233.455 19.7008 232.559 18.8081C232.062 18.3134 231.56 17.8287 231.049 17.3542C230.078 16.4462 229.079 15.5687 228.061 14.7221C216.563 5.15677 202.485 -0.0178038 188.008 -7.65637e-06C151.544 -7.65637e-06 121.872 32.2653 121.872 71.9274C121.87 76.3007 122.236 80.6651 122.964 84.966C122.966 84.9901 122.969 85.014 122.974 85.0375C123.307 87.0117 123.72 88.9603 124.198 90.8732C127.587 104.376 134.526 116.509 144.162 125.786C153.798 135.063 165.714 141.081 178.449 143.102C191.184 145.122 204.184 143.057 215.856 137.161C227.528 131.265 237.364 121.793 244.159 109.906C245.073 108.304 245.933 106.661 246.739 104.978C251.875 94.1995 254.415 82.1809 254.122 70.045C253.83 57.9091 250.713 46.052 245.064 35.5811ZM188.008 142.835C179.446 142.838 170.966 141.006 163.055 137.444C155.143 133.881 147.954 128.658 141.9 122.074C135.845 115.489 131.042 107.671 127.767 99.0662C124.491 90.4619 122.807 81.24 122.81 71.9274C122.81 32.8262 152.06 1.02024 188.008 1.02024C196.708 1.0256 205.318 2.92495 213.332 6.60633C221.346 10.2877 228.601 15.6766 234.67 22.4554C236.253 24.2126 237.747 26.062 239.145 27.9955C240.529 29.8875 241.821 31.8576 243.014 33.8976C247.99 42.3988 251.242 51.9564 252.552 61.9327C253.863 71.9089 253.201 82.0744 250.613 91.7508C250.036 93.9136 249.361 96.0308 248.601 98.1069C247.836 100.188 246.987 102.229 246.049 104.208C240.563 115.817 232.247 125.561 222.01 132.374C211.773 139.187 200.01 142.806 188.008 142.835Z" fill="#3F3D56"/>
<path d="M277.979 241.273L273.668 241.233L271.759 222.726L278.122 222.785L277.979 241.273Z" fill="#FFB6B6"/>
<path d="M279.122 239.11L277.997 239.029L273.405 238.687L271.927 238.58L271.899 241.931L265.013 247.012C264.673 247.263 264.416 247.626 264.279 248.048C264.142 248.469 264.132 248.927 264.252 249.355C264.371 249.783 264.613 250.158 264.943 250.426C265.272 250.693 265.671 250.84 266.082 250.843L274.652 250.92L276.153 247.614L276.702 250.94L279.938 250.97L279.122 239.11Z" fill="#2F2E41"/>
<path d="M323.369 237.847L319.249 239.224L312.293 222.208L318.375 220.174L323.369 237.847Z" fill="#FFB6B6"/>
<path d="M323.86 235.412L322.763 235.703L318.293 236.881L316.853 237.264L317.758 240.472L312.603 247.573C312.379 247.883 312.24 248.254 312.201 248.646C312.163 249.037 312.226 249.433 312.384 249.787C312.542 250.141 312.788 250.44 313.095 250.649C313.402 250.859 313.756 250.97 314.118 250.97C314.309 250.97 314.499 250.939 314.681 250.879L322.876 248.139L323.387 244.492L324.836 247.481L327.927 246.446L323.86 235.412Z" fill="#2F2E41"/>
<path d="M269.307 85.6578L261.08 111.661L260.808 113.742C258.735 115.882 261.339 116.587 260.363 117.152C259.386 117.716 258.73 119.299 260.046 119.582C261.361 119.864 265.604 221.287 271.2 225.225C276.796 229.163 280.202 232.011 279.174 226.245C278.76 223.922 279.345 211.465 280.193 197.419C280.289 195.827 281.805 194.142 280.49 192.594C279.174 191.046 280.652 190.028 280.734 188.743C281.915 170.401 283.278 152.292 283.278 152.292C283.278 152.292 291.999 184.867 294.264 182.345C296.529 179.824 295.632 186.032 296.325 187.888C296.903 189.438 294.435 192.483 298.062 192.53C301.688 192.577 310.206 224.24 311.07 224.204C312.781 224.133 317.593 224.334 320.451 223.694C321.862 223.378 315.598 199.406 310.368 178.705C309.951 177.054 307.681 177.016 309.141 173.828C310.601 170.641 303.336 150.019 303.96 149.065C305.614 146.534 306.244 145.433 304.613 145.267C302.981 145.102 302.499 146.075 302.411 143.619C302.322 141.164 302.041 135.108 302.041 135.108C302.041 135.108 300.859 111.158 292.582 97.9262L291.876 90.0643L269.307 85.6578Z" fill="#2F2E41"/>
<path d="M289.861 36.0116L278.951 37.7012L278.292 46.2932L272.908 55.4525C272.908 55.4525 260.941 64.6118 269.287 79.0806C266.111 91.5445 262.953 103.498 259.943 111.467C257.597 127.281 278.608 128.797 302.626 123.2C302.626 123.2 302.295 116.438 300.116 113.187C297.936 109.937 299.122 109.227 299.122 109.227L297.6 103.154C298.461 94.3754 295.551 93.5875 294.184 89.5317L298.336 47.4493L289.861 36.0116Z" fill="#E6E6E6"/>
<path d="M237.485 109.567C237.6 108.722 238.014 107.96 238.639 107.442C239.264 106.925 240.049 106.692 240.829 106.795C240.987 106.818 241.143 106.856 241.296 106.908L247.616 97.7644L253.01 99.6197L243.107 111.127C242.862 111.798 242.419 112.362 241.847 112.73C241.276 113.098 240.609 113.251 239.95 113.163C239.575 113.109 239.214 112.976 238.887 112.771C238.56 112.565 238.273 112.292 238.043 111.966C237.813 111.64 237.644 111.267 237.547 110.871C237.449 110.474 237.424 110.06 237.473 109.652C237.477 109.624 237.48 109.595 237.485 109.567Z" fill="#FFB6B6"/>
<path d="M293.621 52.6396C293.466 52.4304 293.297 52.2264 293.119 52.0274C291.88 50.6388 290.284 49.6893 288.541 49.3034C286.798 48.9175 284.988 49.1131 283.348 49.8646C283.189 49.9358 283.029 50.0175 282.875 50.0992C277.269 53.0935 274.244 55.0881 273.878 56.0217C273.752 56.338 273.644 56.6491 273.536 56.95C273.432 57.2459 273.334 57.5264 273.231 57.7815C272.799 58.8732 272.302 59.5517 271.036 59.2456C270.616 59.1339 270.211 58.9642 269.83 58.7407C269.657 58.6488 269.497 58.5519 269.347 58.46C268.803 58.1337 268.409 57.899 268.142 58.1132C267.884 58.3222 267.874 58.8528 268.109 60.0823C268.186 60.5954 268.174 61.1199 268.071 61.6278C267.761 63.1097 267.276 64.5415 266.627 65.8874C265.654 67.9972 264.561 70.0383 263.353 71.9987L252.194 89.302L251.439 90.4702L250.613 91.7508L244.027 101.963L244.417 102.397L246.049 104.208L246.41 104.611L246.739 104.978L247.588 105.922L248.385 106.804L266.176 91.0416L268.16 89.2816L271.716 86.1292L279 79.6762L292.786 65.8007C293.656 64.9318 294.356 63.8807 294.843 62.7105C295.331 61.5403 295.596 60.275 295.623 58.9905C295.623 58.9039 295.628 58.8222 295.628 58.7355C295.633 56.511 294.923 54.3547 293.621 52.6396Z" fill="#E6E6E6"/>
<path d="M283.311 35.6989C290.044 35.6989 295.503 29.7626 295.503 22.4398C295.503 15.1171 290.044 9.18079 283.311 9.18079C276.578 9.18079 271.119 15.1171 271.119 22.4398C271.119 29.7626 276.578 35.6989 283.311 35.6989Z" fill="#FFB6B6"/>
<path d="M299.468 40.8254C301.104 43.3722 302.198 46.2831 302.672 49.347C301.353 50.2644 299.818 50.7463 298.253 50.7342C298.2 50.5113 298.146 50.2883 298.086 50.0654C297.632 48.339 296.957 46.6906 296.081 45.1688C296.201 46.8098 295.997 48.4598 295.481 50.0076C294.654 49.5988 293.768 49.3501 292.862 49.2727C292.124 49.2726 291.396 49.4592 290.736 49.8177C289.969 47.0515 289.263 44.5082 288.762 42.6833C288.747 47.2579 282.582 51.2462 275.855 50.6682C275.612 50.503 278.049 42.9806 277.814 42.8071C277.274 42.4191 276.751 41.998 276.227 41.5851C278.429 37.8857 280.82 33.9222 280.41 33.3277C280.441 34.0626 278.026 37.5968 275.399 40.9327C273.941 39.7685 282.225 20.826 278.132 19.2902C278.064 19.959 277.161 19.959 276.06 19.8186C275.769 18.7151 275.337 17.6615 274.777 16.689C274.849 17.6686 274.741 18.6542 274.458 19.5874C273.37 19.5877 272.286 19.7123 271.223 19.959C270.977 19.538 270.706 19.1353 270.411 18.7534C270.44 19.2188 270.427 19.6862 270.373 20.1489C269.287 20.4049 268.391 20.7021 268.262 20.9416C267.412 20.603 268.862 19.0754 268.33 18.2827C266.979 16.301 268.983 13.4109 270.251 11.363C272.856 7.16831 278.573 5.715 282.62 8.23349C282.802 7.54811 283.736 7.09397 284.935 6.78845C285.444 6.66658 285.964 6.61388 286.484 6.63156C291.647 6.73064 298.815 11.363 299.096 16.9698C299.118 17.5313 299.156 18.1424 299.194 18.7947C299.559 25.0703 299.111 30.8587 303.051 35.4498C304.479 37.1095 304.494 44.9706 303.947 49.0167C302.527 47.39 301.518 41.0649 299.468 40.8254Z" fill="#2F2E41"/>
<path d="M165.194 73.7178C165.971 73.7178 166.601 73.0327 166.601 72.1875C166.601 71.3423 165.971 70.6571 165.194 70.6571C164.416 70.6571 163.786 71.3423 163.786 72.1875C163.786 73.0327 164.416 73.7178 165.194 73.7178Z" fill="#6E63FF"/>
<path d="M209.754 72.6976C210.531 72.6976 211.161 72.0124 211.161 71.1672C211.161 70.322 210.531 69.6368 209.754 69.6368C208.977 69.6368 208.347 70.322 208.347 71.1672C208.347 72.0124 208.977 72.6976 209.754 72.6976Z" fill="#6E63FF"/>
<path d="M75.806 27.953C74.7351 30.8537 71.7139 36.5578 71.3047 39.6696L71.4889 39.4726C71.8402 40.1254 72.2395 40.7462 72.6827 41.329C73.4772 40.4216 74.4368 39.7041 75.5003 39.2221C74.9195 40.518 74.5832 41.9273 74.5111 43.3668C75.6512 47.2536 80.9221 45.5227 84.0104 45.0983C87.0944 48.9348 91.1974 49.9359 96.5703 47.7302C98.073 47.8985 99.7552 48.0006 100.808 47.035C101.861 46.0693 101.234 44.281 101.801 42.9283C105.836 33.2937 102.112 29.8175 98.9477 25.4488C98.2514 24.4874 98.2543 23.0527 97.407 22.1354C96.2314 20.864 94.4293 20.4729 92.7678 20.1596C93.1994 20.1844 93.6296 20.0878 94.017 19.8794C94.4044 19.6709 94.7359 19.3575 94.9796 18.9693C95.1934 18.5782 95.3037 18.1305 95.2984 17.6756C95.2931 17.2206 95.1723 16.7761 94.9495 16.391C94.3553 15.3197 93.1205 14.6966 91.9293 14.541C90.7557 14.4543 89.5768 14.5645 88.434 14.8678C87.6938 14.9737 86.9769 15.2228 86.3174 15.6035C86.0062 15.7841 85.7532 16.0636 85.592 16.4048C85.4309 16.746 85.3693 17.1326 85.4156 17.5128C85.5149 17.8639 85.6858 18.1862 85.9155 18.4555C86.1452 18.7248 86.4279 18.9342 86.7424 19.0681C87.222 19.2886 87.7265 19.4388 88.2425 19.5147C85.8724 19.1802 83.4649 19.6385 81.3402 20.8286C78.6774 22.3733 76.8806 25.054 75.806 27.953Z" fill="#2F2E41"/>
<path d="M90.2242 44.215C95.4811 44.215 99.7426 39.5804 99.7426 33.8632C99.7426 28.1461 95.4811 23.5114 90.2242 23.5114C84.9674 23.5114 80.7058 28.1461 80.7058 33.8632C80.7058 39.5804 84.9674 44.215 90.2242 44.215Z" fill="#A0616A"/>
<path d="M81.0652 28.3127C81.6171 30.1267 83.1942 30.7113 84.6519 31.0758C85.1116 31.1923 85.574 31.3009 86.0408 31.3975C86.213 31.1634 86.3961 30.9339 86.5874 30.717C87.3819 29.8096 88.3414 29.092 89.4049 28.6101C88.945 29.6337 88.6394 30.7311 88.4997 31.8602C89.3809 31.9993 90.267 32.1129 91.158 32.2011C91.9119 32.3756 92.6986 32.2285 93.3555 31.7901C94.0124 31.3518 94.4894 30.6557 94.6879 29.8457C95.499 31.2883 96.4581 32.6468 97.7696 33.2199C98.5197 33.513 99.3363 33.537 100.1 33.2886C100.863 33.0402 101.534 32.5323 102.012 31.8394C102.769 30.7091 103.293 29.4155 103.55 28.0459C103.922 26.4395 104.129 24.589 103.398 23.5698C102.813 22.7449 101.803 22.7301 100.871 22.8033C98.8142 22.9749 96.7792 23.3761 94.798 24.0007L94.6303 24.4108C94.9708 22.1863 94.2322 20.046 92.8658 19.2848C91.9441 18.7759 90.8352 18.8612 89.7578 18.9644C88.3738 19.0316 87.0064 19.3192 85.6992 19.818C84.1996 20.4454 82.9149 21.5613 82.0207 23.0131C81.0644 24.5924 80.5891 26.7462 81.0652 28.3127Z" fill="#2F2E41"/>
<path d="M94.6346 18.6374C94.5407 18.6072 94.784 18.646 94.6996 18.6484C94.7415 18.6458 94.7832 18.6394 94.8242 18.6295C94.8312 18.6279 94.9259 18.5951 94.863 18.6193C95.0043 18.5733 95.1304 18.4838 95.226 18.3616C95.4496 18.0609 95.625 17.7213 95.7449 17.3572C95.8962 16.8761 96.1393 16.4352 96.4583 16.0635C96.5489 15.9646 96.6596 15.8903 96.7815 15.8466C96.9034 15.803 97.033 15.7912 97.1599 15.8123C97.2868 15.8333 97.4073 15.8866 97.5117 15.9678C97.616 16.049 97.7013 16.1559 97.7606 16.2797C97.881 16.7572 97.8398 17.2658 97.6444 17.7131C97.508 18.1682 97.3049 18.5964 97.0431 18.9811C96.6044 19.6103 96.0068 20.0871 95.3233 20.3534C94.532 20.6659 93.6693 20.6927 92.8629 20.4299C92.7564 20.3818 92.665 20.3011 92.6 20.1975C92.5349 20.094 92.4989 19.9721 92.4964 19.8467C92.4938 19.7213 92.5249 19.5978 92.5858 19.4913C92.6467 19.3848 92.7347 19.2998 92.8392 19.2467L94.184 18.6481C94.2548 18.6142 94.331 18.5958 94.4083 18.594C94.4857 18.5921 94.5625 18.6069 94.6346 18.6374C94.7067 18.6679 94.7726 18.7135 94.8284 18.7716C94.8843 18.8298 94.9291 18.8994 94.9602 18.9764C94.9914 19.0533 95.0083 19.1362 95.0099 19.2203C95.0116 19.3044 94.9981 19.3881 94.97 19.4664C94.942 19.5448 94.9001 19.6164 94.8466 19.6772C94.7931 19.738 94.7291 19.7867 94.6583 19.8205L93.3136 20.4192L93.2898 19.236C93.4576 19.2887 93.6303 19.3208 93.8046 19.3317C93.9906 19.352 94.1784 19.3434 94.3622 19.3062C94.5382 19.2811 94.7112 19.2352 94.8781 19.1694C94.985 19.1269 95.0898 19.0786 95.1922 19.0246C95.2294 19.0049 95.2662 18.9845 95.3028 18.9634C95.3001 18.9649 95.4566 18.8658 95.388 18.9124C95.5619 18.7915 95.7251 18.6532 95.8754 18.4994C95.9285 18.4449 95.9774 18.3857 96.0216 18.3225C96.0982 18.2201 96.1692 18.113 96.2343 18.0016C96.3668 17.7658 96.4717 17.5129 96.5467 17.2488C96.5809 17.1379 96.6098 17.025 96.6331 16.9108C96.6397 16.8481 96.6501 16.7859 96.6644 16.7248C96.7143 16.579 96.6549 16.8099 96.7123 16.873L96.9602 17.0717C97.0067 17.0867 97.0558 17.0902 97.1038 17.0819C97.1517 17.0735 97.1974 17.0536 97.2372 17.0234C97.2666 16.9785 97.2602 16.9859 97.218 17.0458C97.1689 17.1162 97.1239 17.19 97.0834 17.2666C96.9946 17.447 96.9142 17.6322 96.8426 17.8215C96.6947 18.224 96.5076 18.6082 96.2846 18.9676C96.0661 19.331 95.7477 19.6102 95.3748 19.7653C95.0019 19.9204 94.5934 19.9434 94.2077 19.8313C94.0629 19.7686 93.9466 19.6465 93.8839 19.4914C93.8211 19.3363 93.817 19.1606 93.8723 19.0022C93.9314 18.8461 94.0438 18.7209 94.1859 18.6529C94.328 18.5849 94.4888 18.5793 94.6346 18.6374Z" fill="#2F2E41"/>
</g>
<defs>
<clipPath id="clip0_3_4">
<rect width="339" height="252" fill="white"/>
</clipPath>
</defs>
</svg>
